<?xml version="1.0" encoding="UTF-8" standalone="no"?><!-- Generator: Gravit.io -->
<svg xmlns="http://www.w3.org/2000/svg"
    xmlns:xlink="http://www.w3.org/1999/xlink" style="isolation:isolate" viewBox="0 0 494.367 252.55" width="494.367pt" height="252.55pt">
    <defs>
        <clipPath id="_clipPath_7jxQmcIDLZ4pdDYL95r368Okm8nhpK8a">
            <rect width="494.367" height="252.55"/>
        </clipPath>
    </defs>
    <g clip-path="url(#_clipPath_7jxQmcIDLZ4pdDYL95r368Okm8nhpK8a)">
        <path d=" M 8.377 33.786 L 27.126 33.786 L 43.741 43.742 L 45.812 40.954 L 78.491 47.538 L 87.756 62.998 L 125.666 42.006 L 207.303 17.579 L 236.453 7.191 L 279.222 6.17 L 347.946 7.797 L 437.313 21.077 L 479 30.046 L 482.663 33.448 L 486.283 39.389 L 488 49.279 L 469 60.893 L 400 54.606 L 391.003 57.256 L 359.421 57.04 L 392.594 69.797 L 400 82.472 L 392.019 98.086 L 364.1 105.595 L 360.442 119.644 L 344.132 133.251 L 349.993 144.656 L 349.841 157.163 L 324.538 183.012 L 331.632 198.81 L 309.791 231.234 L 269.546 244 L 225.549 244 L 148.744 236.06 L 108.045 220.155 L 93.051 241.549 L 85.142 242 L 82.126 239.723 L 69.434 229.021 L 66.647 233.136 L 68.843 239.15 L 63.28 239.423 L 49.184 239.15 L 44.767 234.911 L 42.391 237.755 L 34.84 231.571 L 16.97 196.564 L 16.775 188.775 L 14.215 176.152 L 14.215 171.025 L 12.211 158.44 L 11.295 155.93 L 13.1 153.963 L 8.377 129.37 L 7.258 116.225 L 5 97.006 L 3 93.982 L 3 86.647 L 3.996 77.639 L 6.509 58.34 L 8.377 33.786 Z " fill="rgb(249,203,203)" vector-effect="non-scaling-stroke" stroke-width="1" stroke="rgb(249,186,186)" stroke-linejoin="miter" stroke-linecap="square" stroke-miterlimit="3"/>
        <path d=" M 167.244 215.583 C 163.22 212.88 171.289 207.313 174.039 209.334 C 169.853 215.01 165.019 219.984 156.408 220.848 C 159.395 218.412 161.827 215.383 167.244 215.589 L 167.244 215.583 Z  M 174.447 199.556 C 174.427 202.396 170.452 208.267 165.105 208.15 C 167.449 204.431 171.518 202.609 174.452 199.552 L 174.447 199.556 Z  M 273.539 173.468 C 271.34 176.474 269.731 180.122 266.643 182.163 C 268.106 178.358 269.861 174.869 273.54 173.472 L 273.539 173.468 Z  M 12.212 153.58 C 6.812 144.702 8.152 132.594 7.764 123.177 C 9.964 134.956 12.77 142.816 13.74 156.093 L 11.295 155.992 C 14.24 156.942 14.025 160.798 14.215 164.281 C 10.385 163.926 9.615 154.954 12.211 153.591 L 12.212 153.58 Z  M 154.889 120.332 C 146.249 134.428 141.021 147.175 127.271 155.93 C 126.635 153.037 130.708 150.869 133.317 148.016 C 136.261 144.799 140.057 140.683 142.761 136.976 C 146.935 131.234 148.563 123.02 154.877 120.33 L 154.889 120.332 Z  M 209.68 98.94 C 207.784 106.827 204.723 120.82 197.144 125.367 C 201.301 116.523 205.278 107.495 209.678 98.936 L 209.68 98.94 Z  M 222.73 21.077 C 222.59 24.624 217.863 23.175 216.819 25.732 C 214.964 23.376 220.918 22.263 222.734 21.077 L 222.73 21.077 Z  M 197.391 21.654 C 179.06 28.875 158.008 53.659 148.744 71.893 C 147.1 75.127 147.609 80.227 142.663 80.623 C 153.095 58.157 166.035 38.418 184.991 25.22 C 157.238 37.379 148.533 70.243 131.486 94.04 C 141.358 68.126 154.513 45.779 172.593 28.786 C 139.033 49.973 129.323 104.471 104.343 137.828 C 115.487 132.612 119.742 112.525 131.045 104.64 C 123.221 116.306 116.945 129.652 107.536 139.594 C 111.723 139.871 114.98 131.788 118.611 128.623 C 117.878 134.369 111.362 141.191 108.045 146.965 C 119.94 138.589 125.601 123.436 136.377 113.847 C 129.731 128.495 119.024 138.73 110.32 151.144 C 117.126 145.475 123.002 138.794 128.292 131.476 C 127.137 139.316 118.841 146.765 113.514 152.91 C 124.602 146.758 133.705 131.127 141.88 118.974 C 144.647 121.231 139.344 127.67 136.546 129.37 C 132.908 139.902 124.932 145.722 119.187 153.963 C 125.339 153.264 126.064 146.665 131.008 144.656 C 130.896 142.26 132.956 142.227 132.844 139.832 C 140.037 135.151 141.361 124.092 149.184 120.096 C 141.24 134.248 133.533 144.509 124.011 155.797 L 117.489 155.526 C 135.823 161.308 156.182 156.909 170.788 150.398 C 170.293 149.547 168.948 149.478 169.258 147.884 C 174.702 141.955 181.348 135.424 185.633 127.334 C 189.178 120.641 189.378 110.694 197.082 107.394 C 190.325 120.502 184.893 135.052 175.883 145.711 C 183.644 141.933 186.063 132.347 192.97 127.64 C 189.586 137.88 182.033 143.589 176.461 151.452 C 183.851 147.266 190.75 135.169 197.082 126.995 C 199.355 130.4 193.272 134.599 190.899 138.17 C 187.738 142.927 185.973 148.87 181.388 150.84 C 189.987 147.685 196.007 134.35 202.043 125.568 C 202.972 132.985 192.966 142.856 187.978 149.482 C 197.399 147.221 200.453 130.66 208.633 124.21 C 210.86 126.14 207.102 128.739 206.731 130.665 C 210.13 130.095 209.19 124.815 212.711 124.38 C 214.926 127.04 210.585 127.739 210.807 130.835 C 216.117 126.664 219.655 120.568 221.372 112.491 C 217.107 114.671 218.397 122.892 212.745 123.565 C 216.259 115.739 219.088 107.167 223.514 100.331 C 223.98 104.543 221.573 105.608 221.508 109.23 C 225.358 108.018 223.791 100.915 228.405 100.535 C 230.331 102.731 226.52 103.492 226.536 106.173 C 227.832 108.072 229.706 103.426 230.001 101.418 C 234.271 103.492 232.255 99.591 236.592 100.06 C 236.282 103.701 234.275 105.495 232.209 107.227 C 234.132 107.866 237.991 103.308 239.038 100.162 C 233.322 96.796 221.073 99.438 219.778 92.008 C 224.112 94.383 231.241 96.269 235.097 96.73 C 231.219 92.719 222.151 93.483 219.948 87.931 C 229.941 90.599 247.35 96.696 257.11 97.648 C 255.405 94.621 251.735 96.439 249.874 94.896 C 252.615 91.872 255.729 95.179 258.843 95.27 C 263.943 95.42 268.91 92.321 274.504 91.841 C 283.916 91.031 294.957 93.991 304.057 88.173 C 302.24 86.573 300.563 86.659 297.5 88.715 C 297.63 84.433 302.621 78.491 307.011 76.045 C 305.798 79.839 303.014 81.927 301.713 85.624 C 303.512 85.283 309.299 81.957 308.644 76.113 C 310.362 75.837 310.777 76.762 311.868 77.063 C 313.372 73.015 311.465 65.262 315.674 64.155 C 316.431 68.943 316.169 74.677 316.66 79.714 C 319.48 77.664 318.296 71.265 321.179 69.286 C 323.35 69.114 320.226 73.82 323.486 72.648 C 320.924 73.995 320.953 74.914 321.618 78.287 C 323.284 80.035 327.735 73.065 329.907 75.367 C 328.745 79.216 323.283 78.392 321.483 81.548 C 324.101 83.82 328.125 76.649 330.588 78.661 C 328.87 83.045 323.925 83.917 321.245 87.255 C 324.999 88.628 330.321 80.271 334.526 82.092 C 332.074 85.959 328.249 88.336 323.588 89.803 C 324.259 91.278 326.854 90.981 325.863 93.982 C 339.588 97.508 361.23 107.616 375.492 98.502 C 386.807 100.835 398.721 92.753 395.875 79.752 C 395.277 99.715 372.648 98.819 357.898 89.602 C 355.152 87.423 355.208 82.665 350.866 81.958 C 350.32 73.777 354.965 68.203 361.362 65.245 C 368.673 68.19 379.419 67.973 387.282 70.41 C 382.713 64.991 370.443 64.092 363.06 63.683 C 359.178 59.416 353.099 57.167 347.946 54.069 C 316.03 45.391 269.245 44.387 236.017 35.517 C 233.58 36.125 237.858 36.816 236.694 38.813 C 227.618 42.583 223.163 51.377 215.53 56.715 C 220.778 48.784 226.211 41.056 235.13 37.115 C 233.486 33.447 229.34 36.283 230.17 38.542 C 221.744 42.732 216.774 50.681 209.042 55.628 C 213.168 47.615 219.532 42.032 226.945 37.59 C 226.255 36.135 224.47 35.685 222.122 35.755 C 222.427 37.048 224.656 36.559 223.617 39.084 C 212.436 43.408 207.407 54.418 198.206 60.893 C 204.068 51.923 211.509 44.672 219.574 38.099 C 208.39 41.568 200.016 55.472 189.951 62.998 C 194.778 53.471 202.46 47.049 209.689 40.137 C 197.381 44.937 192.574 57.894 181.732 64.288 C 187.615 55.06 195.542 48.051 203.134 40.68 C 192.352 46.573 184.896 56.081 176.806 64.899 C 178.788 56.54 189.253 50.026 194.879 42.786 C 183.382 47.9 177.269 58.868 168.551 67.005 C 178.023 49.176 193.643 33.489 211.05 27.127 C 207.279 31.834 200.308 33.063 196.714 37.962 C 204.503 35.913 213.967 28.313 224.163 26.041 C 222.597 29.737 217.642 29.748 215.703 33.038 C 228.357 30.416 251.493 31.108 264.553 36.709 C 267.016 36.265 263.852 34.932 264.689 33.448 C 267.206 32.954 267.029 34.954 269.546 34.466 C 269.193 31.658 266.978 30.558 267.406 27.027 C 270.86 28.29 272.611 31.124 276.169 32.292 C 276.292 27.732 272.374 26.899 272.507 22.337 C 278.931 25.051 280.085 32.614 285.821 35.959 C 290.065 34.238 286.126 31.633 287.759 28.691 C 291.327 28.544 291.041 31.942 292.445 33.786 C 294.57 31.571 293.541 26.703 297.71 25.022 C 299.778 26.158 300.202 26.815 299.179 29.165 C 304.78 30.103 303.001 31.296 307.262 31.134 C 306.919 34.455 304.949 36.006 303.696 38.336 C 307.285 37.696 307.697 33.596 310.491 32.086 C 313.89 33.379 310.533 37.869 309.369 39.389 C 313.446 41.246 313.184 31.055 318.676 31.611 C 319.223 35.045 316.932 35.395 316.774 38.065 C 319.273 36.237 320.012 32.493 324.349 32.665 C 324.633 36.381 322.507 37.48 321.597 39.899 C 325.12 38.615 325.976 34.433 328.46 32.019 C 331.499 31.566 330.373 34.96 331.55 36.231 C 334.433 35.389 333.578 30.482 337.495 30.763 C 336.825 35.431 333.504 37.219 332.943 42.006 C 337.484 38.987 337.692 31.26 343.27 29.369 C 344.086 32.542 339.9 36.853 338.717 40.612 C 346.325 38.087 344.68 25.504 353.29 24.07 C 349.557 31.658 346.176 39.63 340.177 44.757 C 349.376 41.122 352.027 30.366 357.435 22.61 C 361.942 25.87 359.647 35.936 358.317 40.613 C 362.829 41.542 360.414 34.939 363.481 34.296 C 366.512 33.66 364.783 38.658 364.1 39.22 C 365.068 41.03 366.873 36.62 369.874 37.829 C 369.908 38.988 369.912 40.144 368.957 40.241 C 370.226 42.38 371.279 37.151 373.95 38 C 373.974 40.012 373.912 41.932 372.932 42.857 C 374.397 44.943 375.307 39.246 378.741 40.649 C 379.234 43.166 377.232 42.988 377.72 45.507 C 380.989 45.082 379.895 39.915 383.665 40.038 C 383.809 43.037 382.571 44.531 381.763 46.493 C 387.387 47.208 384.433 38.599 391.003 40.344 C 390.77 42.647 389.368 43.68 389.133 45.983 C 391.924 47.844 392 39.465 396.709 40.582 C 397.256 43.437 395.364 43.666 395.656 46.255 C 398.673 48.644 397.664 39.376 402.415 40.82 C 403.845 42.474 401.998 45.373 401.328 47.309 C 405.225 46.431 404.417 40.441 408.971 40.277 C 408.74 42.865 406.973 43.787 407.069 46.731 C 410.148 45.534 409.774 40.581 413.08 39.632 C 414.492 41.785 411.359 44.698 411.111 47.717 C 414.262 49.409 414.006 40.088 418.754 40.685 C 419.059 43.857 417.133 44.604 417.633 47.989 C 423.811 42.877 420.621 35.822 424.122 29.475 C 428.605 28.799 423.774 32.224 428.097 32.091 C 423.097 38.282 430.498 42.173 428.266 47.615 C 429.631 49.32 431.634 44.509 433.327 43.742 C 436.438 44.638 432.888 48.302 432.241 50.23 C 435.41 49.417 435.664 45.431 439.781 45.645 C 440.319 49.08 438.036 49.429 437.879 52.099 C 441.559 52.693 440.237 47.843 443.755 48.26 C 445.473 50.049 443.774 51.892 442.737 53.118 C 445.697 52.926 446.739 50.651 448.614 49.279 C 451.1 48.56 449.98 51.156 450.108 52.609 C 452.659 53.11 452.059 50.183 455.068 51.181 C 456.531 52.798 455.073 53.233 454.898 55.257 C 459.597 51.342 465.112 55.687 470.525 52.647 C 472.279 52.332 472.029 53.877 472.05 55.161 C 474.479 54.741 475.57 50.039 477.893 52.137 C 477.435 52.775 476.987 53.425 476.976 54.549 C 480.801 52.742 480.574 46.532 486.283 46.77 C 487.422 41.543 484.459 40.085 484.279 36.071 C 497.838 46.602 482.277 57.976 472.56 62.532 C 444.079 63.585 420.484 54.543 389.436 58.248 C 388.818 55.601 392.171 57.244 392.019 55.089 C 390.648 52.571 389.425 57.302 386.278 55.666 C 382.619 55.573 387.498 53.315 387.263 51.624 C 385.037 53.466 383.503 56.06 379.721 56.209 C 377.806 54.204 381.002 54.744 380.704 52.167 C 377.989 53.194 377.914 57.089 373.197 55.937 C 372.969 52.845 374.967 52.178 375.882 50.333 C 372.373 51.064 372.276 55.501 368.307 55.733 C 366.842 54.116 368.852 54.279 368.477 51.657 C 365.214 53.417 365.154 56.42 360.189 54.578 C 366.565 58.051 379.107 56.654 387.058 56.515 C 383.227 60.444 379.316 57.173 372.248 59.164 C 379.845 64.12 388.59 62.439 395.551 68.303 C 404.644 75.963 400.795 92.443 392.594 100.031 C 384.392 102.478 376.052 104.776 367.013 106.314 C 364.992 120.308 355.456 126.135 347.107 133.251 C 354.014 139.61 349.997 151.605 349.993 161.956 C 346.536 163.312 345.857 167.688 340.785 167.288 C 335.043 173.003 338.411 183.846 328.59 185.564 C 329.571 190.41 331.294 194.573 332.94 198.81 C 330.158 213.684 320.084 220.631 313.609 231.488 C 292.172 242.512 261.506 248.221 231.332 246.024 C 197.096 243.532 166.488 245.521 137.917 233.96 C 125.747 232.615 116.362 228.703 107.277 224.516 C 101.43 231.357 95.281 250.107 82.104 240.617 C 79.235 240.055 79.98 243.418 77.11 242.857 C 79.679 236.881 72.094 234.75 69.434 231.103 C 70.344 234.447 73.001 236.185 74.835 238.678 C 72.113 239.875 65.754 240.382 61.687 240.572 C 55.98 233.016 47.461 228.05 42.121 220.155 C 51.518 225.359 56.825 234.329 66.647 239.145 C 60.103 228.18 46.251 223.935 42.529 210.372 C 48.612 215.752 53.139 222.563 58.935 228.208 C 58.315 220.215 47.653 211.155 42.665 207.111 C 49.371 204.419 53.582 217.389 59.241 220.868 C 60.043 213.21 46.813 205.926 43.923 196.545 C 50.439 199.436 52.081 206.809 58.052 210.201 C 59.449 209.118 57.262 204.702 56.717 202.798 C 43.495 190.92 32.16 177.304 22.479 162.168 C 17.636 164.55 23.046 170.496 25.265 173.718 C 30.35 181.104 39.32 189.443 42.282 196.478 C 33.537 190.151 29.667 179.337 20.373 173.514 C 23.512 184.244 35.576 193.479 41.975 203.816 C 33.458 200.634 28.764 187.255 20.882 180.885 C 21.665 189.576 31.278 196.929 35.386 205.174 C 38.346 206.19 41.412 208.314 40.039 211.084 C 32.648 204.034 25.51 196.751 21.459 186.627 C 19.699 202.892 29.047 212.452 39.631 220.868 C 39.987 224.834 38.313 226.59 39.292 229.021 C 37.638 228.712 37.786 226.747 36.133 226.438 C 33.692 228.622 38.81 231.879 35.793 234.592 C 33.116 232.705 33.875 232.536 31.037 231.125 C 28.269 218.61 10.722 203.469 14.939 186.354 C 19.378 180.055 16.942 170.851 16.775 161.928 C 16.392 141.535 17.848 120.357 13.55 102.175 C 15.423 103.451 14.996 103.958 17.593 103.16 C 23.957 119.94 32.655 134.067 44.324 147.559 C 43.354 135.121 32.147 125.315 25.235 115.729 C 21.191 103.777 13.56 93.614 11.105 82.472 C 22.559 99.376 28.748 121.123 43.204 135.263 C 42.827 124.372 34.478 120.816 31.927 111.926 C 36.292 114.183 37.579 119.27 41.303 122.116 C 41.178 114.724 34.118 110.593 32.37 101.326 C 37.052 104.075 37.962 110.293 42.493 113.182 C 42.43 100.955 30.454 92.898 27.513 80.705 C 33.815 82.231 34.162 96.015 40.59 100.036 C 42.518 99.198 39.57 96.828 42.391 96.028 C 46.302 99.486 43.039 109.011 43.273 114.031 C 43.326 115.311 44.572 116.178 44.767 117.361 C 51.185 155.609 55.77 196.835 66.979 230.99 C 67.708 192.196 57.298 152.845 52.92 117.701 C 57.176 120.174 55.718 126.725 56.451 130.915 C 60.103 151.857 66.315 177.27 67.414 200.793 C 71.589 204.908 68.587 211.069 72.511 215.704 C 71.747 216.604 70.255 215.105 70.744 218.898 C 71.182 221.628 76.315 220.044 77.131 222.43 C 80.234 222.052 76.389 218.987 80.527 219.306 L 80.391 222.566 C 82.389 222.173 84.017 222.231 85.418 219.51 C 79.985 214.573 71.773 208.026 72.341 200.18 C 76.272 203.098 76.375 209.535 80.833 211.967 C 80.399 207.234 75.447 203.04 76.452 199.535 C 79.173 201.386 80.489 205.602 82.566 209.59 C 85.082 214.427 89.466 218.744 86.981 221.208 C 90.007 221.694 92.352 222.362 97.545 222.465 C 82.358 202.461 73.914 176.258 68.843 146.949 C 72.516 147.695 70.599 150.905 71.054 152.757 C 76.951 176.857 85.166 200.627 99.313 219.273 C 98.051 214.155 92.19 206.492 89.497 200.078 C 92.45 199.516 93.365 202.081 95.204 200.316 C 94.78 197.318 91.951 200.353 88.716 199.229 C 69.698 163.238 67.711 108.445 72.96 67.903 C 68.326 70.008 64.61 67.874 59.813 69.797 C 51.541 91.182 63.839 115.415 65.144 137.805 C 62.164 134.21 61.198 128.01 60.083 122.077 C 58.071 111.392 55.784 100.75 55.839 86.781 C 52.001 92.752 55.273 107.558 54.615 116.131 C 51.246 116.206 50.76 110.842 52.476 108.691 C 46.513 90.45 53.28 68.122 61.412 51.078 C 60.144 48.939 59.091 54.169 56.419 53.32 C 58.355 50.966 51.934 51.062 49.184 50.568 C 51.069 45.801 61.356 50.166 63.28 45.44 C 59.273 41.784 51.04 48.567 48.742 41.566 C 47.782 41.652 47.993 43.025 47.826 43.978 C 45.847 44.223 46.116 42.414 43.784 42.993 C 43.84 41.634 43.897 40.275 43.953 38.917 C 61.404 40.662 86.114 38.182 87.864 61.155 C 118.348 40.18 157.301 28.783 198.303 17.579 C 213.6 13.397 227.787 6.084 245.385 4.842 C 268.97 3.177 292.848 5.723 316.383 6.17 C 330.66 6.441 345.349 5.633 360.442 7.191 C 362.725 7.703 363.82 9.308 366.046 9.875 C 400.452 9.494 431.585 19.882 463.469 23.739 C 468.069 28.96 479.368 25.876 482.663 33.524 C 463.249 25.363 439.335 21.251 418.562 23.499 C 401.616 15.005 378.726 15.44 359.421 12.048 C 358.569 12.542 358.5 13.888 356.908 13.577 C 346.182 7.793 324.828 13.467 309.791 7.528 C 298.731 11.505 287.978 9.119 277.113 7.797 C 234.624 2.632 197.584 18.235 175.164 43.563 C 168.348 54.05 160.569 63.492 152.708 72.844 C 162.407 50.159 178.864 34.814 197.312 21.621 L 197.391 21.654 Z  M 346.645 45.847 C 351.397 42.483 357.998 36.606 356.328 29.1 C 353.825 35.467 350.393 40.828 346.641 45.847 L 346.645 45.847 Z  M 327.254 40.954 C 330.103 41.211 329.941 38.192 331.5 37.048 C 331.007 36.979 330.542 36.885 330.72 36.199 L 329.089 36.131 C 329.365 38.711 327.791 39.268 327.249 40.954 L 327.254 40.954 Z  M 135.734 70.536 C 120.555 90.685 113.708 119.887 97.751 139.187 C 108.231 133.249 111.416 119.384 119.358 110.688 C 131.502 81.561 141.843 50.476 164.269 32.525 C 164.181 31.561 164.508 30.218 163.555 30.046 C 151.237 40.238 140.872 52.551 135.726 70.535 L 135.734 70.536 Z  M 208.224 35.993 C 210.666 35.801 213.208 35.729 214.033 33.784 C 211.291 33.648 209.666 34.726 208.22 35.993 L 208.224 35.993 Z  M 351.441 48.5 C 352.202 47.336 352.77 45.967 354.805 46.19 C 352.815 43.738 356.425 41.56 355.043 40.483 C 354.135 42.941 349.935 46.252 351.441 48.5 L 351.441 48.5 Z  M 133.727 59.835 C 138.797 58.108 141.486 51.032 144.903 46.417 C 148.466 41.609 154.382 36.731 153.634 32.898 C 146.708 41.564 137.107 47.315 133.73 59.835 L 133.727 59.835 Z  M 78.215 157.163 C 80.453 156.67 77.471 160.983 79.709 160.491 C 83.061 153.336 91.808 147.516 92.006 139.771 C 87.408 145.564 83.918 152.562 78.214 157.162 L 78.215 157.163 Z  M 145.311 36.642 C 115.672 66.638 106.255 118.613 80.05 152.343 C 91.629 141.351 97.51 124.165 107.872 111.852 C 104.522 122.699 97.66 129.726 92.857 138.993 C 109.235 122.998 119.93 94.783 130.736 72.787 C 131.958 70.298 134.568 63.232 133.658 61.476 C 122.468 74.878 118.725 96.375 107.941 110.221 C 117.549 85.958 129.868 57.378 145.314 36.643 L 145.311 36.642 Z  M 80.39 144.183 C 78.285 147.142 74.87 144.735 76.891 149.755 C 95.06 130.586 107.127 97.399 119.458 69.044 C 125.336 59.522 133.271 47.701 137.056 38.745 C 111.613 66.76 101.975 111.975 80.387 144.178 L 80.39 144.183 Z  M 77.265 140.786 C 96.684 122.124 101.898 88.021 117.184 64.866 C 118.037 58.439 129.191 46.928 128.734 42.48 C 105.115 67.917 96.316 113.115 77.269 140.791 L 77.265 140.786 Z  M 111.03 55.624 C 111.29 53.849 114.891 51.389 112.899 49.985 C 96.653 69.831 84.719 98.886 77.092 125.261 C 81.743 120.541 84.236 114.505 86.808 107.699 C 88.052 104.404 87.759 100.125 88.88 97.17 C 91.52 90.209 96.365 83.38 99.548 76.381 C 102.777 69.279 105.526 61.11 110.962 57.256 C 98.434 82.988 88.336 106.711 77.567 133.448 C 82.468 133.092 81.353 126.201 85.279 124.786 C 95.022 97.026 106.09 70.708 121.12 48.696 C 121.069 47.699 120.964 46.755 119.557 46.996 C 116.239 49.37 115.447 54.479 111.013 55.627 L 111.03 55.624 Z  M 78.491 52.634 C 78.37 49.61 75.154 49.431 73.803 47.538 C 73.959 50.532 76.439 51.386 78.491 52.634 Z  M 75.839 116.225 C 76.008 118.118 73.445 117.031 73.291 118.57 C 75.235 120.806 71.288 125.557 74.547 127.607 C 80.095 100.276 93.595 76.842 106.176 54.606 C 92.127 70.86 82.427 91.849 75.839 116.219 L 75.839 116.225 Z  M 82.126 63.401 C 82.648 58.74 81.266 55.828 78.422 54.263 C 80.673 56.377 78.349 62.694 82.126 63.401 Z  M 387.209 72.044 C 382.011 71.22 371.291 67.509 369.374 68.85 C 375.337 69.393 381.926 73.495 387.207 72.044 L 387.209 72.044 Z  M 73.565 92.447 C 75.894 93.861 72.09 96.594 74.184 97.371 C 77.252 94.74 76.781 88.263 81.148 87.044 C 79.412 94.424 72.303 104.459 74.455 110.448 C 79.819 90.995 92.039 74.454 97.864 58.34 C 90.817 65.769 87.055 81.205 79.586 85.345 C 83.185 78.173 89.402 69.317 91.137 62.959 C 88.659 64.809 87.997 68.635 84.342 69.21 C 84.817 68.021 85.635 67.204 86.109 66.016 C 82.476 67.765 75.101 69.938 76.768 74.611 C 77.683 72.481 78.302 70.028 81.049 69.889 C 78.523 79.608 73.786 80.141 73.745 88.368 C 77.994 84.179 78.469 75.89 83.392 72.437 C 80.763 79.153 76.918 91.992 73.573 92.439 L 73.565 92.447 Z  M 391.046 77.921 C 380.214 74.76 363.791 63.835 356.871 74.862 C 359.143 75.91 362.215 76.218 363.257 78.396 C 359.631 78.632 359.25 77.105 356.735 78.125 C 349.895 78.67 360.598 79.285 359.963 79.077 C 366.563 81.252 379.65 87.383 388.157 88.421 C 388.391 84.811 382.07 87.226 381.804 84.072 C 385.459 83.588 386.653 85.363 389.923 85.228 C 390.996 82.806 392.124 80.453 391.052 77.923 L 391.046 77.921 Z  M 306.562 86.647 C 310.106 86.523 315.064 87.935 316.414 85.426 C 314.486 84.848 310.457 86.205 309.926 84.339 C 311.802 84.943 314.443 80.253 310.91 80.296 C 309.778 82.752 307.959 84.47 306.563 86.648 L 306.562 86.647 Z  M 386.461 89.98 C 377.149 88.611 368.681 82.299 359.794 83.151 C 368.71 84.894 378.026 90.425 386.464 89.98 L 386.461 89.98 Z  M 379.058 91.315 C 376.469 90.531 371.984 87.411 369.345 89.276 C 372.575 89.465 377.087 92.564 379.053 91.315 L 379.058 91.315 Z  M 315.869 118.084 C 312.512 119.28 312.298 113.612 310.231 116.215 C 311.811 117.638 313.93 118.562 314.103 121.277 C 311.58 121.944 311.383 125.137 308.227 125.115 C 308.506 124.16 311.639 122.172 309.211 121.074 C 307.837 124.146 303.303 128.259 300.006 126.406 C 302.72 123.959 305.641 121.736 308.465 119.408 C 298.394 107.644 275.888 102.417 258.36 106.701 C 251.206 110.613 241.051 128.002 250.578 136.594 C 244.537 127.809 251.916 110.826 260.636 110.88 C 259.604 113.686 251.013 116.574 255.369 119.644 C 257.858 111.134 265.333 112.609 272.117 109.725 C 272.093 110.937 268.629 113.229 271.98 112.986 C 274.789 112.633 275.89 110.417 279.42 110.848 C 279.032 114.066 276.627 109.816 276.871 113.191 C 279.589 115.063 284.132 116.414 289.066 114.517 C 288.936 116.868 284.379 116.253 286.451 118.49 C 289.558 118.804 291.011 114.499 293.857 117.176 C 293.362 118.691 289.408 120.771 291.209 121.966 C 291.383 120.377 295.007 118.251 296.167 120.54 C 292.753 121.374 291.776 124.857 288.592 125.941 C 281.404 122.101 268.81 123.232 261.078 119.893 C 259.639 120.116 255.934 122.147 258.461 123.867 C 268.046 123.416 284.412 123.51 290.087 129.269 C 290.386 128.336 292.77 125.535 293.415 127.775 C 293.349 131.396 289.063 130.431 288.286 133.279 C 293.779 134.205 295.332 127.03 299.087 128.829 C 295.552 132.939 290.993 135.938 286.418 138.918 C 293.329 140.584 298.528 128.953 304.761 129.882 C 300.895 135.626 291.056 139.405 288.661 143.91 C 297.13 140.334 303.153 134.098 310.503 129.306 C 310.683 126.343 314.261 122.645 316.413 124.652 C 309.349 132.596 301.964 140.193 291.887 144.863 C 301.313 145.671 306.96 135.16 314.512 131.105 C 311.567 138.7 303.803 141.055 298.374 145.95 C 305.555 147.398 309.188 137.897 315.937 136.065 C 314.268 140.784 309.311 141.929 307.344 146.325 C 314.026 146.262 315.93 143.132 320.624 141.162 C 337.456 134.098 361.029 126.635 362.138 105.325 C 349.994 103.657 340.117 103.187 331.328 99.956 C 333.695 100.404 337.106 102.248 335.234 104.203 C 330.993 102.344 324.829 98.11 319.914 99.48 C 323.175 100.941 330.383 102.891 329.46 105.595 C 324.559 102.785 318.162 101.353 313.426 98.392 C 317.259 96.393 321.373 95.533 325.689 98.086 C 318.357 88.558 305.396 98.786 301.672 106.069 C 306.718 108.524 316.239 106.654 317.671 114.086 C 312.91 112.978 309.48 110.644 306.496 107.903 C 306.862 115.101 315.008 110.858 315.884 118.068 L 315.869 118.084 Z  M 236.15 110.676 C 236.72 106.887 237.757 109.134 238.596 110.778 C 240.088 107.468 242.558 102.286 241.416 101.912 C 241.059 105.783 232.087 107.479 236.144 110.68 L 236.15 110.676 Z  M 239.852 119.809 C 242.783 116.46 244.241 111.511 245.323 106.152 C 241.244 107.417 237.983 114.064 238.324 117.294 C 238.595 116.58 240.678 113.817 240.838 115.766 C 239.952 116.069 238.752 120.153 239.844 119.807 L 239.852 119.809 Z  M 229.593 111.217 C 230.842 115.179 226.623 117.581 228.438 119.336 C 230.857 117.422 231.133 113.175 232.889 110.538 C 231.349 110.296 231.047 111.383 229.591 111.215 L 229.593 111.217 Z  M 233.296 120.349 C 229.641 121.506 227.56 128.862 227.927 131.558 C 230.112 128.251 232.908 125.609 235.639 122.896 C 231.997 118.569 237.138 113.776 236.93 111.516 C 236.001 114.971 230.894 115.778 233.304 120.353 L 233.296 120.349 Z  M 219.232 124.668 C 223.853 123.442 223.916 117.261 226.23 113.527 L 223.785 113.426 C 222.838 117.782 220.566 120.719 219.234 124.667 L 219.232 124.668 Z  M 265.972 120.083 C 270.282 119.497 278.101 121.1 283.875 121.646 C 282.504 116.372 274.548 117.159 269.438 115.327 C 272.059 119.548 266.406 116.966 265.972 120.089 L 265.972 120.083 Z  M 21.564 125.401 C 20.547 125.18 19.951 124.062 19.899 126.148 C 19.159 130.226 21.047 131.888 20.306 135.966 C 30.758 148.565 37.645 164.443 51.387 174.015 C 50.736 166.074 45.614 163.076 41.435 158.082 C 33.028 148.039 24.84 138.128 21.53 126.218 C 29.859 138.155 36.73 151.434 47.855 160.8 C 50.111 158.672 47.011 154.821 46.565 152.579 C 35.002 143.355 25.797 125.169 17.286 110.523 C 17.074 116.981 20.604 120.003 21.566 125.391 L 21.564 125.401 Z  M 281.195 127.253 C 269.049 127.267 265.165 125.162 255.989 124.569 C 260.137 128.402 275.34 130.174 281.192 127.249 L 281.195 127.253 Z  M 211.823 145.593 C 215.276 143.951 219.021 142.624 221.062 139.445 C 220.069 139.311 219.142 139.119 219.499 137.746 C 222.334 134.204 226.904 129.269 226.564 124.974 C 223.556 123.975 224.157 126.903 221.605 126.4 C 223.271 129.847 220.851 132.596 218.039 133.602 C 218.011 131.511 221.835 129.297 219.907 127.963 C 218.659 130.015 214.555 128.959 214.031 131.801 C 216.289 135.992 208.557 141.157 209.444 143.86 C 213.802 142.633 213.627 136.476 218.752 136.082 C 217.092 139.417 212.175 143.686 211.82 145.604 L 211.823 145.593 Z  M 255.744 130.273 C 264.838 130.748 275.114 134.707 284.245 132.278 C 275.815 130.897 260.581 127.739 255.746 130.275 L 255.744 130.273 Z  M 222.728 138.698 C 222.929 137.499 224.729 138.034 226.022 138.022 C 226.129 133.007 233.814 131.742 232.954 128.512 C 231.097 133.036 222.039 134.248 222.726 138.702 L 222.728 138.698 Z  M 273.485 135.91 C 271.903 137.599 267.465 136.182 266.046 138.05 C 272.65 138.409 279.484 139.021 282.486 135.457 C 274.226 135.811 259.59 130.896 254.766 134.3 C 262.204 134.542 267.761 135.873 273.48 135.896 L 273.485 135.91 Z  M 193.651 150.546 C 199.062 145.857 207.278 139.875 206.696 131.489 C 202.148 136.549 194.993 147.662 193.655 150.55 L 193.651 150.546 Z  M 291.039 184.829 C 291.846 183.432 292.675 182.059 295.218 182.552 C 294.961 183.044 293.06 185.607 295.081 185.814 C 295.972 184.226 296.636 182.39 298.514 181.874 C 300.943 183.196 296.575 186.449 299.975 186.018 C 300.559 183.528 300.425 180.256 303.474 180.447 C 303.666 182.347 303.213 183.571 302.487 184.49 C 306.154 185.351 304.564 180.497 307.549 180.617 C 309.862 180.579 306.664 185.614 308.975 185.577 C 311.007 183.808 309.918 178.646 312.576 177.56 C 315.8 177.47 312.571 183.313 314.749 184.184 C 315.892 181.731 316.153 178.324 317.535 176.134 C 319.263 176.896 318.046 180.366 319.776 181.128 C 321.225 179.007 319.861 173.834 323.343 173.926 C 322.983 177.296 324.28 177.148 323.105 179.634 C 327.303 180.218 324.4 173.086 326.708 171.617 C 328.845 176.789 329.473 165.408 333.263 171.072 C 332.826 167.192 333.992 165.048 336.795 164.687 C 337.205 165.879 337.986 166.73 339.14 167.235 C 343.824 159.766 345.35 151.73 349.841 145.631 C 345.319 145.087 346.858 138.967 343.659 137.206 C 329.784 145.172 318.879 153.343 303.031 151.846 C 303.012 153.252 302.315 153.909 301.299 154.224 C 291.015 149.976 277.528 151.249 269.435 154.528 C 269.659 159.567 261.919 163.813 267.295 166.689 C 267.427 160.738 271.432 153.917 273.444 156.329 C 274.472 157.564 267.995 162.252 270.589 166.01 C 271.637 163.739 271.946 160.666 274.124 159.624 C 274.7 162.272 273.873 169.913 268.041 168.353 C 268.476 169.823 265.512 171.641 267.871 172.43 C 267.443 168.239 270.649 169.226 271.168 171.753 C 267.373 174.445 266.753 180.589 260.977 181.127 C 260.89 180.163 261.214 178.819 260.261 178.649 C 258.507 182.14 249.938 178.223 247.113 180.543 C 260.553 178.245 274.323 190.79 289.337 186.388 C 286.568 185.092 285.457 187.135 283.664 185.335 C 283.697 184.141 287.211 182.895 283.767 182.888 C 282.362 180.334 282.398 186.431 279.589 185.165 C 279.524 181.118 282.537 180.415 283.192 177.147 C 279.058 177.486 279.713 183.026 275.581 183.365 C 279.313 178.9 280.41 171.569 283.634 166.55 C 278.472 167.096 281.419 171.271 278.435 173.684 C 278.473 172.604 277.038 172.879 276.872 171.984 C 279.078 166.956 281.227 157.654 288.186 155.306 C 286.578 160.138 284.734 163.045 284.413 167.399 C 289.561 166.942 286.524 160.013 292.123 158.737 C 290.143 164.536 287.309 169.41 284.14 173.921 C 285.353 174.11 287.162 173.755 287.369 174.873 C 285.396 175.855 285.613 179.214 284.65 181.293 C 287.819 181.297 287.412 172.975 291.375 176.673 C 291.49 179.068 289.428 179.102 289.541 181.496 C 291.01 181.454 291.416 182.385 291.067 184.012 C 290.589 183.962 290.09 184.619 291.005 184.813 L 291.039 184.829 Z  M 201.055 149.226 C 205.891 144.823 209.795 139.41 212.368 132.547 C 206.683 135.47 203.155 145.252 201.056 149.226 L 201.055 149.226 Z  M 257.751 140.975 C 264.338 143.243 276.387 143.574 281.427 141.145 C 274.658 141.353 264.166 140.474 257.748 140.971 L 257.751 140.975 Z  M 225.547 149.434 C 229.513 147.495 232.678 144.685 236.453 142.539 C 230.197 141.974 228.539 146.429 225.549 149.434 L 225.547 149.434 Z  M 238.02 144.233 C 237.857 148.061 229.63 147.58 232.007 151.333 C 233.147 149.734 234.798 148.686 237.035 148.276 C 239.916 151.373 247.662 149.997 251.573 152.149 C 250.915 146.025 243.364 150.928 239.514 147.562 C 243.561 145.608 248.478 146.068 254.222 147.359 C 254.712 146.885 256.292 143.572 254.392 143.284 C 251.521 146.951 245.202 145.048 238.034 144.229 L 238.02 144.233 Z  M 266.451 147.872 C 263.358 146.016 258.54 145.991 256.702 146.649 C 261.13 147.276 264.781 150.087 266.453 147.87 L 266.451 147.872 Z  M 82.123 161.417 C 87.58 155.981 95.467 148.657 96.053 140.764 C 91.929 148.206 85.76 153.434 82.123 161.416 L 82.123 161.417 Z  M 83.62 164.747 C 82.11 165.46 78.805 165.556 81.037 167.906 C 88.257 164.954 97.264 152.031 99.212 143.347 C 93.848 150.296 88.883 157.674 83.621 164.745 L 83.62 164.747 Z  M 39.085 175.135 C 32.692 168.055 28.539 159.457 21.218 153.156 C 28.035 173.278 44.257 184.75 56.849 199.561 C 55.32 188.056 45.611 182.362 39.085 175.133 L 39.085 175.135 Z  M 41.497 176.05 C 48.2 177.208 49.954 187.075 54.914 187.225 C 52.783 184.59 51.555 184.161 52.774 179.788 C 40.342 169.01 32.081 154.396 20.844 142.521 C 23.926 157.191 35.688 163.883 41.496 176.047 L 41.497 176.05 Z  M 88.85 176.396 C 94.656 169.351 105.007 162.713 105.36 152.584 C 102.286 155.208 101.207 159.999 96.833 161.211 C 96.364 154.416 106.615 151.262 102.371 145.926 C 97.843 155.494 87.586 163.373 85.725 172.999 C 90.143 169.848 91.078 162.91 96.833 161.212 C 97.921 166.517 87.685 171.045 88.85 176.402 L 88.85 176.396 Z  M 240.077 153.307 C 241.474 154.112 244.133 153.758 244.901 155.142 C 243.598 156.383 236.583 153.227 234.268 155.515 C 243.331 157.894 252.332 160.328 261.75 162.378 C 261.131 154.169 246.617 150.895 240.07 153.31 L 240.077 153.307 Z  M 265.188 158.436 C 265.443 156.66 269.047 154.201 267.056 152.797 C 265.824 154.099 261.601 157.024 265.192 158.44 L 265.188 158.436 Z  M 224.69 169.807 C 221.534 166.252 224.754 156.01 223.775 152.618 C 219.612 157.389 222.588 161.575 221.533 167.225 C 224.18 166.628 222.528 169.965 224.683 169.81 L 224.69 169.807 Z  M 157.634 171.916 C 166.516 169.069 175.302 161.584 177.949 154.797 C 171.223 160.561 164.591 166.417 157.63 171.916 L 157.634 171.916 Z  M 231.656 159.482 C 238.489 160.774 244.878 162.475 251.051 164.375 C 244.641 167.445 235.758 159.242 230.67 163.524 C 240.734 164.979 250.473 166.736 257.301 171.169 C 248.058 170.93 240.385 164.929 233.795 166.921 C 240.594 170.075 250.58 170.297 257.199 173.615 C 252.542 176.105 245.848 170.119 240.893 172.935 C 243.401 173.503 247.104 172.973 247.314 175.652 C 243.139 175.359 235.784 171.247 233.489 174.259 C 237.876 174.024 244.905 179.13 250.507 177.42 C 249.632 177.187 248.606 175.995 249.76 175.754 C 252.738 175.625 255.06 176.105 257.062 176.877 C 258.845 174.553 258.987 170.444 262.26 169.742 C 258.498 170.591 262.564 164.235 260.052 163.934 C 252.619 164.065 239.892 156.303 231.655 159.482 L 231.656 159.482 Z  M 87.756 182.887 C 88.759 186.522 89.739 181.776 90.27 181.36 C 98.097 175.249 109.65 165.169 110.144 155.237 C 102.253 163.984 96.293 174.833 87.76 182.886 L 87.756 182.887 Z  M 154.648 184.863 C 156.466 179.443 163.836 175.546 164.194 171.377 C 154.766 177.038 150.037 187.806 140.413 193.253 C 144.56 185.83 150.291 180.129 156.686 175.148 C 154.217 174.451 154.23 176.455 151.762 175.767 C 151.801 177.799 150.375 178.237 149.961 179.775 C 135.036 188.835 122.236 204.748 110.147 214.048 C 118.93 210.81 127.282 202.568 134.4 200.36 C 127.741 205.905 120.401 210.71 114.12 216.664 C 122.346 215.092 128.545 206.785 135.759 206.95 C 134.624 207.502 131.416 210.073 133.923 211.774 C 138.853 209.737 143.964 203.383 148.158 203.385 C 141.633 210.499 129.507 216.059 123.732 221.15 C 134.257 220.656 140.25 210.702 148.666 210.757 C 142.059 216.357 133.525 219.865 126.823 225.362 C 134.471 224.87 136.994 218.806 145.065 218.771 C 142.627 222.655 136.847 222.904 134.126 226.482 C 144.55 223.042 153.372 217.858 160.895 211.265 C 161 214.135 164.018 209.345 164.122 212.215 C 156.872 219.107 147.268 223.437 138.134 228.282 C 145.287 227.811 151.244 221.522 157.939 223.391 C 155.861 225.98 147.59 226.32 148.699 229.539 C 157.705 227.63 163.705 218.08 172.036 218.262 C 169.596 222.712 162.773 222.395 161.029 227.604 C 169.982 226.816 173.014 215.07 181.106 216.19 C 177.389 224.084 166.196 228.384 163.203 234.228 C 173.04 229.581 179.255 220.997 188.478 215.681 C 184.441 224.931 172.6 230.233 168.808 236.91 C 171.974 233.973 176.196 232.951 179.712 230.017 C 185.352 225.309 188.951 216.268 195.814 215.988 C 190.524 224.156 183.169 230.081 176.179 236.403 C 187.259 231.971 192.801 221.52 201.589 214.596 C 199.039 224.61 187.525 229.415 184.366 235.927 C 194.037 230.816 199.235 220.842 208.111 214.868 C 204.578 224.949 193.716 231.6 189.19 237.761 C 200.319 230.828 209.289 221.546 214.906 208.618 L 218.166 208.755 C 217.126 211.603 215.749 214.08 213.003 215.073 C 212.197 224.181 204.493 227.941 199.108 234.911 C 212.757 229.173 221.094 214.488 223.465 199.175 C 217.922 198.547 220.927 207.211 215.788 207.022 C 216.807 201.312 218.231 196.041 221.293 192.551 C 220.355 188.309 219.999 189.165 222.379 186.065 C 220.243 186.209 218.288 186.168 219.221 183.482 C 216.796 183.199 216.322 186.376 214.296 184.101 C 214.356 181.041 217.407 181.233 217.796 178.53 C 213.884 178.54 214.496 183.465 209.472 182.267 C 211.013 178.259 214.639 176.519 218.746 175.304 C 216.803 173.29 213.949 175.095 211.409 174.998 C 212.468 171.888 216.619 172.138 218.17 169.562 C 212.835 168.894 211.136 176.665 206.552 173.977 C 207.954 170.673 212.116 170.368 214.161 167.761 C 208.727 168.397 205.239 175.66 200.811 174.556 C 203.167 169.438 213.056 167.991 213.515 163.651 C 205.759 166.299 200.902 172.097 193.438 175.064 C 198.18 168.003 206.62 164.963 212.87 159.541 C 202.985 162.147 197.348 169.372 189.397 174.079 C 187.358 176.428 185.181 183.104 180.972 180.261 C 187.084 172.417 195.834 167.441 203.019 160.763 C 191.322 164.524 185.058 174.192 176.046 180.872 C 179.998 171.531 189.012 167.694 195.648 161.272 C 193.729 161.175 193.189 162.576 190.724 161.891 C 188.488 166.5 182.73 168.128 178.867 172.013 C 176 174.9 174.652 182.451 169.526 180.608 C 174.501 172.947 181.526 167.515 188.278 161.789 C 179.218 163.872 175.21 171.446 168.88 176.497 C 167.984 178.683 166.19 184.318 162.969 181.151 C 166.732 175.298 171.432 170.464 176.66 166.205 C 166.19 169.045 163.623 180.458 154.665 184.921 L 154.648 184.863 Z  M 114.969 157.068 C 106.996 167.434 98.711 177.461 89.252 186.212 C 99.879 179.856 112.631 166.778 114.969 157.073 L 114.969 157.068 Z  M 149.448 172.391 C 157.291 170.685 164.912 164.209 166.365 158.395 C 161.109 163.484 154.39 166.972 149.444 172.388 L 149.448 172.391 Z  M 120.058 171.979 C 111.88 179.849 97.338 180.802 93.051 192.903 C 97.498 190.342 102.136 183.475 106.503 183.663 C 103.296 189.269 96.703 191.192 93.696 197.014 C 99.04 197.142 99.025 191.443 103.751 190.9 C 102.494 194.931 98.969 196.498 97.636 200.444 C 102.707 200.825 103.13 193.193 107.691 194.33 C 104.275 198.761 103.096 200.472 99.912 204.623 C 104.55 205.118 104.535 200.558 109.049 200.92 C 107.367 203.658 101.342 206.15 102.187 208.802 C 106.224 206.657 108.724 202.84 113.907 201.94 C 112.304 205.878 107.63 206.481 105.413 209.753 C 112.618 209.344 115.479 204.216 121.244 202.247 C 126.592 193.285 139.467 187.968 142.612 179.453 C 136.86 181.189 126.076 173.342 116.558 177.55 C 121.823 171.622 133.289 167.904 134.426 160.327 C 129.903 163.373 126.084 171.702 120.125 170.346 C 121.551 167.637 125.391 167.551 126.104 164.063 C 120.78 165.956 115.763 172.694 111.055 172.419 C 113.541 170.009 115.315 166.824 117.136 163.689 C 111.11 169.358 103.283 177.603 99.199 182.542 C 106.122 177.709 111.57 171.294 120.059 171.981 L 120.058 171.979 Z  M 131.343 175.718 C 138.87 172.538 145.573 168.461 149.109 160.943 C 143.572 165.726 134.193 170.868 131.341 175.715 L 131.343 175.718 Z  M 139.526 175.244 C 146.32 172.398 154.907 166.972 156.444 161.25 C 150.523 165.605 143.953 169.265 139.523 175.243 L 139.526 175.244 Z  M 125.666 174.666 C 130.376 173.245 137.451 167.029 141.699 162.268 C 135.38 165.34 129.576 168.974 125.669 174.669 L 125.666 174.666 Z  M 260.319 177.015 C 262.634 178.123 264.018 177.585 264.498 174.738 L 262.051 174.635 C 262.239 176.251 260.887 176.216 260.323 177.016 L 260.319 177.015 Z  M 230.663 202.732 C 229.501 198.46 227.572 194.747 228.691 191.217 C 230.626 185.132 236.263 186.591 238.848 182.658 C 227.047 181.42 222.874 196.307 230.661 202.735 L 230.663 202.732 Z  M 263.792 191.859 C 263.52 192.804 260.058 195.096 263.655 195.119 C 264.623 193.615 265.808 192.346 266.305 190.329 C 259.054 188.461 248.507 183.655 241.982 186.048 C 250.629 186.713 258.061 188.494 263.788 191.854 L 263.792 191.859 Z  M 251.418 214.215 C 250.453 214.302 249.11 213.978 248.937 214.929 C 263.138 221.248 280.457 217.888 293.539 222.506 C 294.922 219.723 299.565 216.019 301.147 216.289 C 300.512 220.144 297.346 221.248 294.355 222.54 C 299.214 222.012 304.214 225.463 308.214 223.118 C 303.824 222.007 301.56 223.674 299.313 221.112 C 303.174 219.059 303.705 213.387 308.656 212.52 C 307.399 214.037 304.857 218.56 305.903 219.754 C 308.91 217.056 310.518 212.838 314.43 211.127 C 314.44 213.196 310.795 215.606 312.562 216.765 C 317.788 210.049 324.603 203.087 324.179 192.748 C 325.346 190.798 327.176 193.771 327.476 192.071 C 326.274 191.869 326.801 190.072 326.799 188.775 C 315.083 185.218 306.154 193.173 294.731 193.971 C 287.264 194.493 281.207 190.976 272.753 192.238 C 267.709 200.106 264.802 210.297 257.093 215.269 C 257.107 214.146 257.551 213.493 258.01 212.856 C 250.019 212.885 243.236 207.641 237.798 207.93 C 241.491 212.559 246.431 211.254 251.43 214.219 L 251.418 214.215 Z  M 253.081 193.865 C 247.055 194.445 245.535 190.877 239.291 191.657 C 240.721 195.307 248.453 193.157 249.684 196.991 C 245.355 197.289 241.144 193.381 237.489 195.666 C 245.332 197.596 251.134 201.406 260.08 202.325 C 259.273 199.718 260.082 200.474 260.284 197.433 C 259.015 196.248 256.109 196.568 255.494 194.782 C 256.946 194.661 259.542 195.775 258.822 193.288 C 253.602 192.56 254.542 190.996 249.142 190.434 C 248.499 193.37 252.989 191.594 253.081 193.856 L 253.081 193.865 Z  M 265.111 199.263 C 267.336 198.114 271.891 192.892 268.712 191.247 C 269.032 195.352 264.017 197.017 265.11 199.26 L 265.111 199.263 Z  M 312.433 220.027 C 318.762 215.14 328.188 204.932 327.245 197.777 C 324.154 207.205 317.58 212.838 312.433 220.031 L 312.433 220.027 Z  M 257.333 209.555 C 257.069 207.58 258.895 207.844 258.318 205.513 C 251.329 202.009 241.198 197.224 232.501 197.903 C 244.39 198.468 243.687 210.615 257.331 209.555 L 257.333 209.555 Z  M 237.051 206.266 C 235.434 205.932 229.121 203.299 228.864 206.742 C 231.188 204.907 235.877 207.526 237.048 206.269 L 237.051 206.266 Z  M 222.885 213.025 C 221.692 213.431 220.844 214.214 220.339 215.369 C 219.829 221.075 213.347 227.648 209.025 232.048 C 206.51 232.453 206.249 236.122 208.176 232.828 C 213.349 231.634 215.345 226.985 219.93 225.153 C 222.183 221.07 223.461 215.924 226.961 213.195 C 226.882 224.523 216.1 231.466 208.786 237.755 C 216.655 236.369 218.998 228.97 225.601 226.207 C 223.05 231.956 218.239 235.246 214.425 239.623 C 223.417 236.612 228.785 225.126 234.774 221.688 C 233.299 226.904 230.405 230.574 227.707 234.46 C 233.577 231.182 237.745 226.054 239.019 217.781 C 233.782 219.078 237.089 217.388 234.196 215.947 C 232.236 218.929 232.134 223.932 227.334 223.826 C 228.67 219.882 230.55 216.528 231.886 212.583 C 229.354 211.355 229.17 212.292 226.18 212.345 L 226.418 206.639 C 222.033 206.839 224.006 208.953 222.885 213.017 L 222.885 213.025 Z  M 116.425 220.015 C 121.253 216.74 128.971 216.606 132.289 211.693 C 126.792 210.581 118.582 217.568 116.429 220.019 L 116.425 220.015 Z  M 228.252 241.017 C 234.292 238.164 248.09 223.79 240.584 219.479 C 238.611 228.414 232.272 237.127 228.254 241.012 L 228.252 241.017 Z  M 236.47 239.723 C 242.643 237.34 248.131 229.682 247.001 222.196 C 244.569 229.209 240.419 234.364 236.467 239.723 L 236.47 239.723 Z  M 37.067 223.241 C 33.317 222.489 32.053 215.335 28.337 217.161 C 31.456 218.498 32.933 225.457 37.067 223.245 L 37.067 223.241 Z  M 243.807 240.029 C 246.685 235.487 251.342 232.88 251.756 225.663 C 247.295 227.929 245.048 237.099 243.808 240.03 L 243.807 240.029 Z  M 268.333 239.423 C 270.893 239.907 276.758 232.136 276.112 229.132 C 273.403 232.424 271.079 236.153 268.333 239.424 L 268.333 239.423 Z  M 247.925 239.385 C 252.059 239.335 251.009 233.647 254.72 233.136 C 255.367 238.373 252.212 239.499 251.05 242.782 C 257.659 242.511 257.15 233.443 253.226 229.806 C 252.14 233.744 249.504 235.999 247.92 239.387 L 247.925 239.385 Z  M 261.922 236.702 C 262.712 234.68 267.292 232.37 265.453 230.315 C 265.244 232.975 260.457 235.062 261.92 236.702 L 261.922 236.702 Z  M 266.03 236.06 C 269.956 236.637 269.298 232.228 271.161 230.558 C 269.043 231.952 266.483 232.865 266.035 236.065 L 266.03 236.06 Z  M 272.374 240.407 C 275.918 238.703 283.306 234.571 280.12 230.929 C 277.939 234.518 274.359 236.596 272.375 240.409 L 272.374 240.407 Z  M 281.415 239.15 C 282.864 236.441 288.792 234.13 287.462 231.234 C 286.333 234.297 280.625 236.836 281.412 239.145 L 281.415 239.15 Z  M 152.677 232.151 C 155.778 231.262 159.022 230.529 160.218 227.566 C 157.354 228.712 154.724 230.123 152.677 232.147 L 152.677 232.151 Z  M 84.493 241.552 C 89.285 241.648 92.576 240.112 94.482 237.069 C 90.728 238.099 87.55 239.763 84.494 241.549 L 84.493 241.552 Z  M 40.816 231.564 C 44.276 231.276 48.804 236.747 51.074 240.16 C 47.553 240.519 45.852 239.215 44.654 237.441 C 43.99 238.128 44.812 241.065 41.257 240.568 C 38.882 236.907 44.136 234.849 40.815 231.571 L 40.816 231.564 Z  M 41.87 225.898 C 47.664 229.975 52.789 234.668 57.631 239.623 C 51.149 239.304 44.811 232.072 41.87 225.896 L 41.87 225.898 Z  M 292.939 217.58 L 292.835 220.025 C 291.396 219.78 288.718 220.678 289.64 218.259 C 291.095 218.419 291.406 217.322 292.938 217.582 L 292.939 217.58 Z  M 290.591 215.039 C 289.358 216.258 288.744 218.145 287.941 219.829 C 286.476 219.871 286.264 218.759 284.714 218.879 C 286.043 216.903 287.671 215.264 290.595 215.042 L 290.591 215.039 Z  M 28.074 204.067 C 32.194 208.642 37.699 211.939 39.725 218.438 C 34.178 215.174 31.111 209.63 28.074 204.067 Z  M 209.165 209.168 C 212.889 209.732 209.649 215.389 206.514 213.958 C 206.633 211.529 208.755 211.274 209.167 209.172 L 209.165 209.168 Z  M 180.632 207.978 C 178.646 212.068 176.655 216.153 170.508 215.721 C 174.109 213.379 174.527 207.588 180.633 207.98 L 180.632 207.978 Z  M 287.472 211.62 C 286.48 213.668 285.762 216.012 283.971 217.191 L 281.527 217.089 C 282.812 214.513 284.041 211.875 287.466 211.616 L 287.472 211.62 Z  M 193.747 206.886 C 193.155 208.804 192.492 210.635 190.316 210.826 C 190.907 208.917 191.571 207.081 193.748 206.887 L 193.747 206.886 Z  M 188.849 206.683 C 186.434 208.603 187.615 214.431 182.055 212.933 C 183.128 209.553 185.609 207.694 188.851 206.682 L 188.849 206.683 Z  M 198.669 206.278 C 199.993 206.092 200.041 207.108 201.081 207.195 C 201.678 209.843 198.896 208.798 198.499 210.354 C 196.598 210.068 198.177 206.759 198.669 206.279 L 198.669 206.278 Z  M 164.459 204.037 C 158.2 208.866 152.751 216.243 145.13 217.114 C 151.186 212.843 157.293 204.277 164.456 204.036 L 164.459 204.037 Z  M 275.034 215.999 C 275.659 212.132 278.19 210.339 279.484 207.2 C 282.152 209.083 278.42 210.897 284.272 209.85 C 283.452 213.996 279.7 218.785 275.038 216 L 275.034 215.999 Z  M 23.488 196.518 C 24.844 198.669 27.112 199.98 27.293 203.21 C 24.975 201.945 23.207 200.174 23.488 196.516 L 23.488 196.518 Z  M 289.336 205.979 C 288.086 207.476 284.851 209.377 283.527 208.187 C 283.984 207.551 284.432 206.899 284.444 205.775 C 286.993 206.294 287.712 204.127 289.341 205.979 L 289.336 205.979 Z  M 246.163 203.364 C 249.854 203.626 251.991 205.32 255.03 206.183 C 252.534 207.905 246.451 206.256 246.16 203.36 L 246.163 203.364 Z  M 143.466 198.265 C 144.444 201.056 140.46 205.772 135.822 205.296 C 137.707 202.225 141.103 200.797 143.465 198.266 L 143.466 198.265 Z  M 69.315 194.348 C 71.882 194.338 72.028 196.555 72.405 198.559 C 69.837 198.569 69.691 196.356 69.314 194.348 L 69.315 194.348 Z  M 161.503 196.564 C 162.798 200.36 154.159 207.815 147.914 209.064 C 151.441 203.795 157.839 201.668 161.506 196.561 L 161.503 196.564 Z  M 203.94 197.51 C 204.931 199.477 203.642 206.246 199.523 205.494 C 200.153 201.938 202.679 200.425 203.938 197.514 L 203.94 197.51 Z  M 193.342 197.068 C 194.585 199.875 191.819 205.616 188.076 205.832 C 188.954 201.964 191.54 199.952 193.338 197.064 L 193.342 197.068 Z  M 208.896 196.087 C 212.005 198.41 209.069 206.393 205.261 204.919 C 206.745 202.272 207.525 198.851 208.897 196.082 L 208.896 196.087 Z  M 117.586 192.278 C 116.049 196.29 113.707 199.426 109.092 200.091 C 111.045 196.542 113.872 193.932 117.581 192.281 L 117.586 192.278 Z  M 71.08 191.153 C 73.472 190.03 74.917 196.484 76.481 198.729 C 71.582 199.053 73.795 192.846 71.08 191.154 L 71.08 191.153 Z  M 76.04 189.731 C 76.994 189.645 77.484 189.971 77.636 190.615 C 80.222 195.587 82.404 201.387 85.142 206.444 C 87.779 211.312 92.791 214.986 92.752 219.829 C 84.117 212.62 80.379 200.896 76.039 189.735 L 76.04 189.731 Z  M 287.227 197.726 C 285.727 200.925 283.683 203.53 281.962 206.488 C 279.182 204.675 283.751 198.193 287.224 197.729 L 287.227 197.726 Z  M 216.3 194.767 C 215.57 200.507 215.158 206.593 210.049 207.572 C 211.803 202.936 211.81 196.411 216.304 194.763 L 216.3 194.767 Z  M 182.904 192.55 L 186.166 192.686 C 182.968 197.544 180.227 207.13 174.174 206.07 C 176.16 200.56 182.539 199.826 182.902 192.55 L 182.904 192.55 Z  M 278.366 194.903 C 279.203 199.229 274.097 204.453 272.081 208.525 C 278.222 206.393 277.462 196.761 284.073 195.141 C 279.711 202.333 276.87 211.174 270.143 215.796 C 270.61 213.461 273.136 213.365 272.827 210.19 C 269.199 210.508 270.151 215.802 266.067 215.625 C 267.69 211.992 270.711 209.879 271.401 205.23 C 266.81 207.055 267.484 214.608 261.991 215.455 C 264.369 210.654 267.163 206.304 269.908 201.9 C 274.101 206.049 275.374 197.173 278.383 194.905 L 278.366 194.903 Z  M 126.728 188.578 C 126.489 192.88 119.354 197.03 115.619 200.365 C 116.486 196.761 122.968 191.899 126.728 188.583 L 126.728 188.578 Z  M 275.951 193.988 C 274.946 196.588 273.389 198.59 272.385 201.188 C 269.339 199.864 273.003 194.139 275.952 193.988 L 275.951 193.988 Z  M 190.352 190.417 C 189.702 195.685 187.049 206.137 179.074 206.28 C 183.147 201.328 186.59 195.702 190.353 190.413 L 190.352 190.417 Z  M 12.381 169.109 L 14.827 169.21 C 14.176 174.774 15.903 178.15 15.03 183.919 C 12.962 180.075 13.133 174.165 12.381 169.11 L 12.381 169.109 Z  M 200.739 176.152 C 198.031 179.173 196.132 183.075 192.213 184.78 C 193.258 179.947 195.299 176.196 200.737 176.148 L 200.739 176.152 Z  M 193.403 175.845 C 193.276 179.688 190.827 180.998 189.021 183.012 C 185.908 181.431 189.524 175.193 193.402 175.846 L 193.403 175.845 Z  M 209.746 175.703 C 212.674 177.905 206.639 183.169 202.884 183.583 C 204.177 179.878 207.694 178.593 209.748 175.705 L 209.746 175.703 Z  M 204.892 174.686 C 205.527 175.145 206.18 175.591 207.303 175.603 C 202.427 179.96 199.88 186.85 192.866 188.884 C 195.162 182.298 201.119 179.681 204.889 174.687 L 204.892 174.686 Z  M 275.989 173.57 C 277.317 173.408 277.36 174.398 278.401 174.487 C 276.446 177.759 274.964 181.547 270.724 182.333 C 271.817 178.708 274.695 176.994 275.986 173.574 L 275.989 173.57 Z  M 289.815 174.961 C 289.805 172.393 292.022 172.248 294.028 171.87 C 295.101 173.286 295.606 179.253 292.125 178.325 C 292.448 176.2 291.977 174.806 289.821 174.962 L 289.815 174.961 Z  M 258.258 167.925 C 256.359 168.116 255.134 167.663 254.215 166.94 C 255.085 165.122 258.374 165.093 258.256 167.923 L 258.258 167.925 Z  M 282.471 155.06 C 278.907 159.71 278.972 168.299 273.639 171.025 C 274.459 166.654 276.816 156.959 282.469 155.056 L 282.471 155.06 Z  M 64.152 141.862 C 65.48 141.699 65.524 142.691 66.565 142.778 C 69.175 158.4 71.121 174.651 76.958 187.313 C 67.345 180.161 68.271 154.305 64.152 141.868 L 64.152 141.862 Z  M 151.591 140.613 L 154.036 140.714 C 151.123 148.058 147.571 154.709 138.715 155.592 C 142.621 150.181 148.872 147.322 151.586 140.616 L 151.591 140.613 Z  M 148.363 139.663 C 146.04 145.171 140.595 154.455 132.159 156.137 C 137.578 150.662 141.354 143.401 148.359 139.661 L 148.363 139.663 Z  M 134.37 122.742 C 136.529 124.061 132.926 126.205 132.535 127.566 C 130.383 126.25 133.985 124.103 134.375 122.746 L 134.37 122.742 Z  M 161.481 118.976 C 160.148 125.488 154.68 134.873 148.403 138.849 C 152.254 131.68 156.828 125.287 161.477 118.975 L 161.481 118.976 Z  M 166.437 117.544 C 167.13 123.598 159.323 134.674 154.072 139.896 C 157.514 131.709 162.401 125.093 166.435 117.549 L 166.437 117.544 Z  M 300.209 121.495 C 299.194 124.37 297.212 126.192 294.263 126.964 C 294.704 123.45 296.683 121.629 300.212 121.492 L 300.209 121.495 Z  M 173.91 114.589 C 174.864 114.503 175.352 114.831 175.506 115.473 C 171.229 122.775 168.332 132.281 163.887 139.489 C 160.203 145.462 155.264 152.974 147.751 154.332 C 158.374 142.422 165.337 129.809 173.91 114.595 L 173.91 114.589 Z  M 179.654 114.015 L 182.099 114.117 C 173.924 127.387 169.589 144.833 156.792 153.079 C 156.012 150.564 164.857 141.66 168.07 137.217 C 171.249 128.754 176.7 122.75 179.654 114.023 L 179.654 114.015 Z  M 131.618 110.383 C 132.566 115.959 125.333 120.018 122.853 124.718 C 122.539 119.818 129.293 115.252 131.615 110.384 L 131.618 110.383 Z  M 189.61 110.349 C 181.001 124.568 176.434 143.184 162.568 151.689 C 171.42 138.586 180.219 125.425 187.164 110.247 L 189.613 110.35 L 189.61 110.349 Z  M 201.293 104.302 C 202.177 109.332 198.178 123.578 191.407 125.94 C 194.26 118.259 198.97 112.587 201.288 104.305 L 201.293 104.302 Z  M 29.302 96.313 C 31.588 96.56 32.716 97.876 32.393 100.526 C 29.824 100.536 29.679 98.323 29.302 96.315 L 29.302 96.313 Z  M 2.466 93.555 C 4.446 93.31 4.177 95.118 6.509 94.54 C 7.166 101.672 7.861 112.037 7.935 119.101 C 2.967 114.203 5.085 102.389 2.466 93.557 L 2.466 93.555 Z  M 319.569 107.607 C 315.593 111.738 311.289 104.134 304.962 105.363 C 309.119 100.728 314.684 107.75 319.567 107.61 L 319.569 107.607 Z  M 218.677 98.494 C 219.433 103.362 214.885 119.621 207.841 123.359 C 211.942 115.602 214.71 106.396 218.68 98.499 L 218.677 98.494 Z  M 213.01 97.44 L 215.457 97.541 C 212.695 108.175 209.828 118.693 202.887 124.784 C 205.959 115.345 211.97 109.1 213.006 97.438 L 213.01 97.44 Z  M 324.534 106.174 C 318.897 108.21 315.571 101.364 308.365 102.233 C 311.562 97.584 320.95 103.757 324.538 106.174 L 324.534 106.174 Z  M 370.598 98.298 C 370.513 101.334 366.871 100.496 363.973 100.471 C 364.531 97.946 368.756 99.418 370.599 98.297 L 370.598 98.298 Z  M 355.068 98.466 C 356.242 99.407 361.407 97.44 363.324 96.361 C 366.471 97.232 360.495 99.249 363.187 99.622 C 354.311 101.886 347.884 98.63 339.609 97.006 C 342.342 94.009 346.142 92.174 351.262 91.775 C 349.354 94.248 345.112 94.179 343.686 97.176 C 348.766 96.45 351.167 92.805 356.153 91.979 C 355.858 95.35 351.733 94.559 351.024 97.482 C 354.367 97.425 355.894 95.388 358.498 94.526 C 360.641 96.077 355.928 97.336 355.076 98.467 L 355.068 98.466 Z  M 3.996 76.472 C 8.701 77.629 3.525 87.881 8.377 88.905 C 6.383 90.265 5.154 86.658 2.636 89.483 C 2.947 84.008 2.848 78.996 3.996 76.471 L 3.996 76.472 Z  M 336.421 95.239 C 337.779 91.314 341.86 90.355 345.661 89.091 C 343.427 92.064 341.344 95.192 336.416 95.238 L 336.421 95.239 Z  M 344.132 86.577 C 340.687 88.954 336.318 94.346 331.632 92.589 C 335.011 90.144 339.978 85.403 344.129 86.577 L 344.132 86.577 Z  M 339.346 83.927 C 336.19 87.599 332.059 90.21 326.777 91.57 C 329.679 87.625 334.27 85.519 339.341 83.926 L 339.346 83.927 Z  M 280.746 79.033 C 282.07 78.847 282.115 79.861 283.158 79.95 C 280.065 82.553 280.571 89.068 275.411 89.427 C 276.011 84.688 279.408 82.982 280.741 79.033 L 280.746 79.033 Z  M 288.929 78.557 C 286.904 83.175 285.797 88.789 280.301 89.631 C 281.924 84.573 284.383 80.43 288.926 78.557 L 288.929 78.557 Z  M 374.573 81.313 C 376.556 82.102 380.225 81.342 380.177 83.996 C 378.19 83.206 374.517 83.968 374.569 81.313 L 374.573 81.313 Z  M 295.521 77.198 C 295.255 81.056 292.062 88.651 286.044 89.054 C 288.404 84.237 291.458 80.173 295.517 77.197 L 295.521 77.198 Z  M 275.96 76.381 L 279.222 76.518 C 276.239 83.22 274.529 91.302 266.312 92.314 C 269.264 86.718 274.721 83.845 275.965 76.382 L 275.96 76.381 Z  M 271.875 76.211 C 273.524 79.777 266.584 92.314 261.447 91.294 C 265.309 86.681 268.608 81.457 271.878 76.211 L 271.875 76.211 Z  M 301.265 76.621 C 299.458 81.756 297.256 86.467 292.605 88.51 C 294.925 83.932 296.391 78.43 301.264 76.621 L 301.265 76.621 Z  M 225.948 80.83 C 229.353 79.289 232.159 85.027 235.526 86.129 C 234.663 83.513 228.96 78.592 226.186 75.124 C 230.777 72.766 235.991 82.608 238.753 87.081 C 243.146 88.006 245.351 90.943 249.149 92.414 C 241.054 94.983 230.192 86.984 225.945 80.83 L 225.948 80.83 Z  M 11.094 62.884 C 16.163 78.083 22.115 92.469 28.893 106.095 C 21.319 93.2 11.526 82.345 11.095 62.881 L 11.094 62.884 Z  M 16.869 61.491 C 22.109 68.695 24.644 82.558 27.126 89.686 C 23.118 87.886 23.464 82.08 21.047 78.815 C 19.367 80.089 18.096 80.978 16.97 78.646 C 16.251 76.159 18.847 77.277 20.3 77.151 C 18.602 72.444 15.441 69.078 16.87 61.492 L 16.869 61.491 Z  M 252.11 80.287 C 253.302 82.626 255.21 76.01 257.069 78.861 C 257.147 82.352 253.946 82.283 252.754 84.397 C 257.666 87.722 257.704 78.433 261.996 78.25 C 261.61 82.378 258.731 83.791 257.545 87.047 C 262.364 88.948 261.706 78.09 266.921 77.639 C 264.861 82.218 263.036 87.051 259.855 90.41 C 246.547 89.324 238.691 83.224 233.563 74.613 C 239.242 78.932 244.905 82.919 250.343 83.481 C 251.104 79.89 246.085 74.868 243.483 71.761 C 246.423 68.327 254.51 76.268 252.105 80.287 L 252.11 80.287 Z  M 328.605 67.144 C 333.232 69.296 326.559 72.489 325.853 74.379 C 323.386 71.634 328.737 70.159 328.608 67.144 L 328.605 67.144 Z  M 24.174 43.012 C 29.408 46.037 38.385 45.619 41.839 50.282 C 39.171 50.633 38.069 49.567 36.166 49.228 C 38.439 55.762 46.657 56.824 47.782 64.412 C 44.302 65.514 38.358 62.828 34.84 61.423 C 35.247 64.982 43.759 67.845 45.812 72.497 C 45.17 75.863 39.358 74.922 36.776 73.754 C 36.424 78.781 41.798 78.543 42.109 82.959 C 38.254 80.495 33.193 79.14 33.549 72.803 C 36.592 72.544 37.303 72.345 41.735 72.327 C 39.26 65.654 27.262 63.777 27.673 57.04 C 32.259 59.354 38.253 60.374 42.959 62.578 C 41.479 55.57 32.224 48.937 23.223 46.237 C 23.181 44.77 24.291 44.561 24.175 43.011 L 24.174 43.012 Z  M 7.258 37.406 C 10.431 46.747 6.17 63.083 6.577 73.312 C 1.311 65.983 6.273 49.707 7.156 39.852 C 7.203 39.325 5.983 38.264 7.258 37.406 L 7.258 37.406 Z  M 239.304 54.435 C 238.557 51.323 242.916 46.446 246.235 44.924 C 242.386 41.721 237.187 50.696 233.631 53.382 C 232.753 47.597 241.973 45.411 243.993 39.93 C 247.858 38.418 252.093 44.794 247.085 44.142 C 247.408 45.157 248.058 45.861 249.464 45.876 C 248.698 48.168 247.45 49.937 245.183 50.596 C 247.134 47.331 240.068 52.548 239.302 54.435 L 239.304 54.435 Z  M 43.74 43.829 C 43.111 44.564 42.207 45.001 41.227 45.358 C 35.145 37.706 21.05 33.785 13.1 34.384 L 13.236 31.122 C 25.726 30.132 38.73 35.339 43.741 43.829 L 43.74 43.829 Z  M 242.433 38.232 C 235.933 44.519 229.79 51.193 222.084 56.168 C 227.048 48.214 233.062 41.401 242.437 38.233 L 242.433 38.232 Z  M 207.098 23.692 C 207.343 27.651 203.003 26.628 201.187 28.345 C 184.802 39.51 172.991 55.647 160.218 70.737 C 171.763 50.615 184.903 32.231 207.101 23.692 L 207.098 23.692 Z  M 223.747 16.218 C 222.654 19.86 218.016 19.647 213.793 19.886 C 215.938 17.381 219.35 16.269 223.749 16.218 L 223.747 16.218 Z  M 437.315 25.945 L 432.426 25.742 C 432.897 23.169 436.933 22.841 437.313 25.946 L 437.315 25.945 Z  M 354.427 15.953 C 357.359 16.814 352.537 20.485 355.046 20.877 C 353.453 23.287 352.645 18.455 352.771 16.698 C 353.715 16.871 354.237 16.574 354.441 15.952 L 354.427 15.953 Z " fill-rule="evenodd" fill="rgb(255,0,0)"/>
    </g>
</svg>